<?xml version="1.0" encoding="UTF-8" standalone="no"?><!DOCTYPE svg PUBLIC "-//W3C//DTD SVG 1.1//EN" "http://www.w3.org/Graphics/SVG/1.1/DTD/svg11.dtd"><svg width="100%" height="100%" viewBox="0 0 2000 2000" version="1.1" xmlns="http://www.w3.org/2000/svg" xmlns:xlink="http://www.w3.org/1999/xlink" xml:space="preserve" xmlns:serif="http://www.serif.com/" style="fill-rule:evenodd;clip-rule:evenodd;stroke-linejoin:round;stroke-miterlimit:2;"><g id="logo.jpg"><path d="M566.064,1858.175c-13.461,-0.277 -13.387,-0.13 -14.538,-0.299c-0.569,-0.084 -0.509,-0.201 -42.926,-36.554c-7.605,-6.518 -80.468,-68.963 -94.506,-82.116c-18.048,-16.911 -38.471,-32.663 -43.498,-37.509c-23.618,-22.768 -245.062,-212.46 -254.397,-222.557c-10.744,-11.621 -8.856,-106.221 -10.633,-115.968c-4.116,-22.571 -1.495,-22.612 0.252,-59.652c2.382,-50.507 2.718,-50.439 2.886,-54.828c2.018,-52.918 4.474,-52.665 4.588,-57.258c0.453,-18.193 3.247,-17.758 4.444,-35.777c3.097,-46.626 6.595,-46.071 6.832,-50.11c1.297,-22.161 7.427,-28.753 9.24,-52.515c0.578,-7.579 24.932,-99.631 28.274,-107.643c6.785,-16.269 16.973,-49.876 18.302,-54.26c7.958,-26.252 50.47,-120.566 61.728,-140.739c57.763,-103.496 171.83,-310.48 476.483,-491.625c41.06,-24.414 74.167,-39.609 76.137,-40.837c27.389,-17.079 171.786,-76.253 222.175,-87.428c10.704,-2.374 112.26,41.662 135.699,52.453c172.35,79.351 258.394,153.266 275.407,165.463c40.304,28.894 98.054,83.091 110.091,95.132c220.428,220.509 283.375,427.67 320.876,566.534c4.208,15.582 2.129,15.832 6.418,31.218c9.807,35.176 5.669,35.941 14.588,71.455c0.242,0.963 0.5,10.65 0.748,11.802c4.115,19.103 2.551,19.132 6.174,38.316c3.465,18.352 2.444,30.599 3.399,35.6c9.988,52.349 6.414,268.292 1.052,278.814c-3.163,6.206 -261.774,226.413 -450.956,390.359c-6.515,5.646 -159.173,-2.776 -321.036,-2.776c-169.52,-0 -169.305,-4.397 -338.66,-4.397c-107.442,0 -107.183,-2.297 -214.644,-2.298Zm856.19,-9.27c12.115,-0.489 10.728,-3.988 27.82,-16.946c4.654,-3.528 43.296,-37.591 47.036,-40.888c69.237,-61.033 210.676,-182.123 229.071,-197.871c7.477,-6.402 145.313,-123.053 146.38,-127.606c1.166,-4.973 8.913,-197.712 -3.401,-264.769c-0.517,-2.815 1.652,-3.004 -3.384,-35.62c-4.618,-29.909 -2.688,-30.01 -9.88,-61.946c-2.923,-12.981 0.324,-13.312 -3.032,-26.095c-8.276,-31.524 -18.525,-85.943 -28.329,-112.056c-10.774,-28.697 -56.622,-242.412 -260.176,-464.394c-6.654,-7.256 -35.917,-39.168 -87.805,-86.226c-13.764,-12.482 -60.675,-49.094 -66.025,-53.27c-155.657,-121.483 -327.4,-184.901 -365.622,-201.305c-1.592,-0.683 -2.077,0.87 -20.551,-6.837c-7.872,-3.284 -22.491,4.077 -45.725,10.345c-4.724,1.274 -3.751,3.943 -57.479,20.886c-2.65,0.836 -16.386,8.092 -32.82,13.451c-33.943,11.07 -106.293,50.406 -115.279,55.291c-10.161,5.524 -92.155,50.104 -123.727,74.779c-4.419,3.454 -5.273,2.221 -56.874,40.985c-273.658,205.575 -375.808,484.155 -377.454,490.995c-0.958,3.98 -20.061,48.853 -25.362,69.373c-4.734,18.325 -7.772,17.335 -15.715,52.19c-7.486,32.853 -13.011,31.546 -37.433,176.626c-0.27,1.605 -3.345,51.33 -6.192,64.583c-0.509,2.372 -2.62,52.535 -2.812,57.105c-2.509,59.639 -1.318,59.47 0.154,119.219c0.295,11.962 1.501,11.759 1.551,23.86c0.176,41.992 2.484,42.876 15.708,53.706c2.118,1.734 45.605,41.12 65.344,56.625c4.148,3.258 2.057,5.568 49.591,43.443c5.81,4.629 4.861,5.676 70.036,60.968c12.922,10.963 40.903,35.988 44.435,39.146c14.411,12.888 100.484,86.492 117.035,102.247c2.36,2.246 2.76,1.686 31.36,25.975c16.865,14.323 16.008,15.01 32.811,29.226c5.77,4.881 6.756,3.442 108.335,3.575c2.103,0.003 1.838,1.56 26.234,1.632c25.377,0.075 216.989,0.641 317.201,2.822c13.379,0.291 13.078,1.535 26.229,1.548c138.481,0.133 357.188,3.84 388.744,5.228Zm-329.115,-193.358c-16.583,-1.216 -20.024,-4.624 -40.549,-4.678c-43.97,-0.118 -43.897,-1.866 -47.684,-1.393c-33.253,4.151 -34.848,-0.593 -52.503,2.097c-30.731,4.682 -30.808,3.801 -33.461,4.295c-87.652,16.316 -156.93,30.409 -288.763,100.238c-12.747,6.751 -18.242,-4.094 -45.897,-24.5c-99.64,-73.523 -98.351,-75.025 -107.142,-81.222c-23.177,-16.338 -58.427,-42.928 -63.461,-46.724c-10.873,-8.201 -131.071,-98.868 -135.807,-102.652c-50.387,-40.264 -60.468,-43.604 -62.554,-49.558c-1.294,-3.693 -0.514,-125.969 -0.423,-126.545c3.772,-23.68 1.101,-42.818 2.332,-50.115c5.117,-30.325 3.875,-46.563 4.6,-50.152c6.694,-33.14 21.258,-252.768 142.638,-476.145c16.917,-31.132 112.325,-206.713 289.289,-335.36c98.283,-71.449 147.298,-90.362 179.246,-106.839c46.105,-23.778 183.675,-73.79 193.614,-69.405c115.347,50.89 195.76,100.199 212.058,110.193c470.966,288.795 519.084,704.619 529.94,741.628c4.36,14.862 2.286,15.195 4.447,23.963c6.373,25.853 2.96,26.293 7.85,52.353c2.625,13.988 2.678,30.426 3.293,33.658c8.593,45.167 9.976,191.033 5.568,214.594c-3.396,18.153 -0.125,33.357 -3.965,52.68c-1.334,6.713 -149.717,109.821 -217.105,160.691c-3.901,2.945 -39.857,30.087 -49.261,36.132c-31.822,20.455 -132.764,99.738 -140.125,98.698c-16.352,-2.31 -10.863,-14.607 -126.59,-64.007c-61.924,-26.433 -146.217,-41.536 -159.587,-41.922Zm491.559,-881.081c16.913,-14.069 18.1,-25.579 20.1,-31.698c5.691,-17.409 -25.795,-63.805 -86.728,-8.781c-30.825,27.836 -10.364,55.389 -0.416,59.151c32.293,12.21 64.408,-16.692 67.044,-18.672Zm-26.875,-1.244c-2.513,0.995 -25.839,14.005 -34.96,-1.757c-15.72,-27.165 67.599,-72.435 62.296,-25.938c-1.413,12.393 -21.303,23.979 -27.336,27.695Zm-1144.383,117.686c-39.618,-28.151 -91.748,-24.979 -90.63,16.712c0.63,23.486 38.738,38.346 43.125,40.057c60.705,23.671 84.518,-30.46 47.505,-56.769Zm-50.094,-0.824c58.552,2.171 58.424,51.761 23.829,46.39c-51.649,-8.019 -53.287,-45.118 -31.052,-46.303c2.404,-0.128 4.819,0.041 7.223,-0.087Zm1032.656,-393.62c-54.659,10.097 -69.93,63.196 -62.645,77.589c26.038,51.438 92.496,-5.957 93.052,-45.637c0.371,-26.486 -19.553,-30.719 -30.407,-31.951Zm-26.342,78.794c-58.527,1.684 26.679,-96.238 38.722,-46.944c3.593,14.706 -19.927,42.695 -38.722,46.944Zm-142.681,1080.187c4.819,1.543 25.373,12.486 23.468,-1.327c-1.018,-7.384 -30.456,-6.452 -26.833,-16.894c7.117,-20.513 7.976,-19.991 14.933,-40.372c1.224,-3.586 -7.956,-15.873 -14.66,2.235c-17.034,46.009 -16.999,47.472 -13.602,49.825c0.068,0.047 9.087,3.092 16.694,6.533Zm-112.172,-38.254c-8.753,-3.181 -8.073,-4.22 -12.52,-10.528c-3.456,-4.902 -9.678,-3.065 -10.767,-1.907c-10.077,10.713 27.357,36.95 44.149,17.981c21.492,-24.277 -21.917,-37.974 -22.813,-38.639c-4.067,-3.02 -4.658,-9.433 1.84,-10.666c10.454,-1.984 10.23,0.577 17.058,8.723c2.433,2.903 10.136,3.668 10.889,0.244c4.706,-21.408 -42.644,-26.046 -45.355,-9.53c-3.094,18.85 2.456,18.465 19.436,26.968c20.217,10.124 6.479,17.569 -1.916,17.355Zm61.87,-42.665c-10.988,-1.365 -13.204,-4.388 -14.376,0.875c-3.014,13.533 -4.036,13.222 -4.205,14.411c-2.537,17.831 -12.673,43.553 -5.292,45.062c38.37,7.847 39.391,11.37 42.844,7.273c12.022,-14.26 -31.779,-8.448 -31.316,-19.076c1.101,-25.234 26.54,-2.666 33.59,-9.655c11.49,-11.391 -23.05,-9.221 -25.94,-16.623c-8.375,-21.453 34.546,1.804 35.776,-9.441c0.293,-2.674 0.788,-7.201 -31.082,-12.827Zm-603.858,-962.353c-1.274,3.141 -1.059,3.222 -2.01,4.118c-35.654,-11.427 -35.082,-12.812 -38.211,-13.678c-23.961,-6.634 -23.972,-7.595 -25.872,-6.618c-18.846,9.693 -5.882,15.451 10.723,28.805c20.518,16.502 18.559,18.399 39.223,34.61c14.239,11.171 16.626,23.66 27.494,9.079c3.412,-4.577 -3.963,-7.864 -5.703,-9.425c-15.145,-13.587 -15.483,-12.951 -30.699,-26.497c-32.953,-29.338 50.546,17.293 60.841,7.529c13.753,-13.043 -0.947,-13.766 -32.437,-43.135c-2.858,-2.665 -29.543,-27.552 -36.603,-32.345c-6.574,-4.463 -12.858,4.776 -12.898,6.805c-0.08,4.082 42.293,37.692 46.152,40.753Zm181.896,1002.055c7.756,-3.663 8.605,-3.455 9.376,-3.265c1.52,0.373 12.233,29.84 16.043,43.333c2.665,9.437 15.474,5.261 12.7,-2.657c-13.539,-38.645 -19.056,-44.841 -5.176,-48.458c12.549,-3.271 5.104,-14.786 -2.313,-11.362c-12.697,5.861 -20.617,6.957 -23.333,8.265c-12.6,6.067 -15.708,2.875 -16.54,8.781c-1.019,7.235 2.115,7.145 9.243,5.363Zm293.105,-10.71c8.34,-0.637 8.808,0.145 9.81,-1.663c7.648,-13.804 -20.764,-14.984 -22.201,-7.468c-1.88,9.83 2.466,8.883 12.39,9.132Zm-78.711,6.818c-12.035,-1.074 -15.052,-1.093 -18.161,-18.383c-3.811,-21.198 17.364,-32.031 28.654,-19.75c5.786,6.294 21.547,3.431 10.476,-8.24c-18.922,-19.946 -65.361,-1.727 -49.972,40.199c10.363,28.233 58.773,17.608 57.437,2.257c-1.23,-14.135 2.287,-20.932 -11.775,-19.491c-1.355,0.139 -19.118,-1.361 -16.789,7.591c1.63,6.264 18.318,-1.977 14.951,9.647c-1.317,4.549 -13.546,6.016 -14.821,6.169Zm-95.435,-40.544c-14.296,2.855 -0.848,21.04 2.911,58.014c0.865,8.511 15.247,7.185 10.738,-11.718c-0.711,-2.979 -8.128,-21.572 -1.702,-21.252c3.896,0.194 24.58,34.361 33.349,32.671c13.041,-2.514 5.889,-8.27 4.647,-25.856c-0.15,-2.127 -0.978,-1.946 -4.708,-26.231c-0.198,-1.286 -2.827,-18.409 -11.538,-11.468c-7.751,6.176 16.951,59.649 -3.483,33.761c-1.679,-2.127 -14.51,-18.383 -22.093,-25.666c-3.075,-2.953 -5.92,-2.127 -8.121,-2.254Zm260.005,-35.86c21.445,0.984 129.539,17.251 195.358,51.363c10.994,5.698 11.314,4.645 22.214,10.596c19.524,10.659 20.935,19.739 39.265,7.043c24.928,-17.267 242.245,-148.434 243.914,-153.961c1.048,-3.471 -1.58,-3.668 2.961,-45.226c6.566,-60.09 -1.846,-169.679 -6.743,-193.412c-0.268,-1.297 -0.386,-14.373 -0.793,-16.543c-5.996,-31.932 -16.046,-102.971 -26.762,-133.382c-4.923,-13.972 -2.59,-14.415 -7.521,-28.51c-6.716,-19.194 -5.355,-19.395 -13.944,-43.05c-15.736,-43.335 -106.644,-354.195 -474.007,-558.529c-24.848,-13.821 -24.988,-13.255 -50.578,-25.344c-36.515,-17.25 -36.536,-18.618 -40.254,-17.362c-156.814,52.986 -314.792,163.256 -418.301,295.08c-114.43,145.733 -135.986,227.886 -166.544,296.215c-1.899,4.247 -0.349,4.685 -17.917,55.331c-10.955,31.583 -30.307,115.819 -30.62,119.077c-1.275,13.268 -3.547,12.742 -4.497,26.121c-0.164,2.309 -1.389,2.079 -4.597,28.566c-1.75,14.454 -3.887,14.009 -4.322,28.71c-0.393,13.254 -6.24,28.576 -6.728,66.798c-0.236,18.537 -4.521,18.113 -4.521,69.165c0,16.872 1.028,16.784 -1.522,33.477c-0.255,1.667 -1.071,42.798 4.268,46.86c8.027,6.107 234.099,158.717 247.954,169.506c12.783,9.955 13.846,0.529 51.475,-14.917c2.922,-1.199 2.709,-1.504 36.067,-16.068c3.851,-1.682 81.622,-29.428 107.476,-33.337c2.907,-0.44 26.608,-8.8 52.624,-10.927c6.427,-0.526 5.832,-3.306 23.869,-4.407c14.487,-0.884 13.959,-3.583 28.485,-4.367c19.263,-1.04 18.789,-4.188 38.202,-4.571c4.589,-0.09 4.448,-1.301 57.287,-3.068c23.077,-0.772 23.128,-4.543 128.752,3.071Zm95.413,-119.24c-16.539,-1.365 -19.748,-4.27 -23.786,-4.493c-31.182,-1.722 -30.732,-4.45 -33.429,-4.551c-20.476,-0.769 -20.1,-3.334 -40.572,-4.642c-50.607,-3.233 -50.466,-4.287 -54.866,-4.454c-196.106,-7.425 -294.822,17.851 -310.164,20.277c-69.018,10.911 -79.788,25.06 -123.842,19.953c-16.381,-1.899 -32.067,-22.204 -33.593,-30.685c-4.934,-27.423 -3.904,-35.393 13.476,-55.674c17.897,-20.884 100.946,-49.99 103.701,-50.501c2.516,-0.467 19.224,-3.571 31.085,-7.557c10.459,-3.515 10.771,-1.822 21.355,-5.123c26.112,-8.144 65.271,-10.677 66.453,-10.932c18.92,-4.086 19.179,-1.099 38.227,-4.458c33.48,-5.903 276.114,-19.689 448.886,42.427c36.192,13.012 34.897,15.662 56.287,26.116c7.679,3.753 38.655,68.214 -30.64,93.703c-15.217,5.597 -77.736,-11.815 -85.727,-12.607c-1.7,-0.168 -39.424,-6.247 -42.85,-6.8Zm-64.403,-121.631c-4.615,-0.383 -4.592,-0.332 -4.984,-0.413c-22.372,-4.675 -22.568,-2.055 -45.129,-5.653c-26.099,-4.162 -52.951,-2.922 -57.046,-3.499c-36.256,-5.108 -157.201,1.097 -157.55,1.152c-39.358,6.164 -39.613,3.666 -42.972,4.482c-24.588,5.973 -25.034,2.748 -31.071,4.46c-2.433,0.69 -20.078,5.694 -30.958,6.39c-9.743,0.623 -9.312,2.258 -18.935,4.089c-63.335,12.047 -116.59,40.651 -126.039,45.727c-41.99,22.554 -36.322,67.206 4.297,73.001c15.55,2.219 60.552,-12.223 64.313,-12.621c13.035,-1.381 12.424,-3.853 19.107,-4.536c11.103,-1.135 10.547,-3.362 21.5,-4.513c15.397,-1.618 14.813,-3.569 23.882,-4.459c2.284,-0.224 28.064,-2.754 28.549,-2.84c30.696,-5.486 30.747,-4.201 33.401,-4.689c21.547,-3.959 21.711,-1.254 42.981,-4.465c37.855,-5.716 48.636,-3.33 66.795,-3.781c53.71,-1.334 53.488,0.125 107.298,0.164c36.864,0.027 36.771,4.154 57.235,4.396c21.721,0.257 21.213,3.735 42.921,4.438c15.824,0.513 15.272,3.457 31.018,4.236c19.989,0.988 19.745,2.209 21.47,2.284c19.386,0.843 71.557,12.916 81.15,13.726c15.307,1.293 27.377,12.522 62.131,6.46c10.738,-1.873 25.898,-18.242 26.814,-29.541c3.143,-38.766 -11.201,-37.217 -38.998,-50.019c-41.581,-19.151 -47.582,-16.155 -62.076,-21.259c-17.877,-6.295 -96.755,-21.666 -119.105,-22.715Zm89.702,92.651c-19.574,4.441 -0.226,-5.822 0.208,-6.035c5.616,-18.683 3.786,-18.967 8.216,-37.924c2.006,-8.583 -6.514,-15.487 2.053,-13.294c1.126,0.288 0.843,0.329 13.947,4.072c-0.793,11.823 -10.016,22.343 1.111,24.921c11.599,2.416 11.627,2.684 12.56,2.27c2.93,-1.298 1.937,-7.527 3.594,-15.611c1.218,-5.942 -4.997,-4.686 -5.47,-7.001c-1.559,-7.632 6.107,-0.244 19.421,0.562c6.625,-0.437 6.596,-0.6 7.155,-0.472c0.502,0.115 4.424,4.079 -4.594,4.5c-3.249,11.729 -2.646,11.716 -4.331,23.891c-0.266,1.919 -0.851,1.795 -4.31,23.836c-1.176,7.494 -17.51,8.11 -15.44,-2.514c0.761,-3.908 5.466,-15.116 1.011,-22.02l-3.835,-0.832c-5.507,-1.041 -5.279,-1.283 -9.855,-4.262c-10.931,14.781 -2.167,29.037 -2.244,29.175c-1.377,2.445 -3.864,0.975 -19.197,-3.262Zm-74.607,-16.138c5.585,2.518 9.442,2.106 6.066,5.068c-3.145,2.76 -29.398,-3.516 -9.17,-6.431c0.553,-3.557 -0.53,-3.946 5.587,-14.057c0.623,-1.03 5.032,-8.319 7.54,-13.029c0.453,-0.507 -0.03,-0.664 4.865,-6.963c8.803,-15.349 11.343,-19.129 13.071,-14.047c3.619,10.642 1.505,10.956 5.24,21.335c0.995,2.765 5.119,31.055 9.226,33.318c17.869,9.845 -6.387,4.116 -16.862,2.254c-0.573,0.034 -10.601,0.63 -6.356,-3.334c0.291,-0.272 1.672,-0.563 1.822,-0.595c2.561,-0.54 1.924,-1.344 3.928,-2.742c-6.769,-17.06 -15.208,-16.422 -24.956,-0.778Zm-42.727,-52.609c-21.263,-10.337 -19.457,5.909 -17.265,7.439c4.588,3.203 34.341,9.477 26.589,34.302c-2.633,8.432 -17.297,16.391 -29.708,9.71c-4.331,-2.332 -4.58,-1.084 -9.371,-2.666c-4.918,-1.624 -0.788,-25.577 4.3,-11.883c0.628,1.69 5.384,14.491 19.53,11.254c5.137,-1.175 13.328,-9.314 4.396,-15.453c-5.525,-3.797 -33.557,-8.534 -23.593,-32.023c7.57,-17.846 26.878,-6.265 28.89,-5.058c14.037,4.512 3.425,18.713 0.73,12.016c-1.678,-4.169 -1.261,-4.299 -4.498,-7.638Zm-347.028,56.09l4.431,0.448c6.458,4.492 -23.837,10.349 -11.103,-0.533c1.606,-8.918 0.982,-8.836 4.224,-17.196c0.06,-0.75 0.106,-0.696 1.771,-6.616c2.24,-13.583 3.714,-13.012 6.402,-26.349c2.813,-13.959 12.567,6.941 32.276,42.922c1.066,1.946 12.522,5.722 5.141,6.939c-23.077,3.806 -24.553,1.584 -23.52,0.011c0.426,-0.649 1.637,-0.431 2.063,-1.079l2.37,-1.301c-3.602,-6.054 -2.656,-6.556 -7.842,-11.015c-13.319,2.601 -20.248,0.866 -16.211,13.77Zm-68.215,-5.22c-0.796,12.63 -0.026,22.194 -1.372,23.303c-3.014,2.484 -5.811,-3.692 -10.297,-11.802c-14.54,-26.29 -10.555,-31.799 -22.478,-32.857c-0.629,-0.09 -7.197,-1.032 -7.811,-1.468c-6.307,-4.466 7.231,-5.287 17.281,-6.631c9.058,-1.211 9.513,6.89 21,25.37c3.754,-13.271 0.777,-13.777 4.965,-26.891c5.56,-8.246 7.151,-5.852 16.944,-8.517c3.971,1.311 4.313,1.053 4.272,1.41c-0.052,0.458 -0.25,0.346 -3.378,4.674c2.07,18.573 8.925,40.396 9.176,42.958c0.439,4.478 2.285,2.725 6.633,3.053c3.131,0.237 4.905,5.653 -2.291,6.026c-9.852,0.51 -9.292,2.573 -19.031,4.222c-8.675,1.47 0.732,-7.898 0.827,-8.397c0.003,-0.015 -6.691,-38.235 -6.963,-39.011c-0.587,1.408 -2.581,1.894 -3.168,3.302c-2.434,5.834 2.25,9.111 -4.309,21.256Zm313.913,-9.341c13.058,6.907 -1.748,5.494 -2.21,5.419c-5.903,-0.959 -9.352,0.547 -7.216,-3.172c0.271,-0.473 1.214,-2.115 4.669,-4.961c0.434,-1.249 2.91,-8.379 6.641,-15.138c2.147,-5.923 1.824,-5.858 4.457,-11.489c3.007,-3.853 3.034,-3.797 3.248,-4.161c0.615,-1.049 -0.317,-1.208 0.351,-2.348c3.945,-6.273 8.316,-20.943 11.947,-14.624c2.022,3.519 1.844,3.542 17.273,47.7c1.903,5.447 5.508,6.344 5.962,7.42c1.281,3.036 -35.995,4.265 -24.138,-2.994c6.153,-3.767 1.968,-5.214 -1.955,-11.127c-13.225,-0.299 -13.108,-0.727 -14.249,-0.691c-2.342,0.076 -2.737,4.716 -4.78,10.164Zm-71.859,1.758c-7.648,3.918 -7.861,2.892 -16.411,3.312c-15.981,0.785 0.581,-4.58 0.953,-4.662c4.202,-0.932 1.709,-31.939 1.148,-48.123l-2.387,-2.208c-16.329,-5.316 7.435,-3.45 19.57,-5.135c25.571,-3.551 42.813,18.233 16.521,25.409c-3.434,2.45 -6.334,3.886 -2.131,5.132c11.823,3.506 11.524,5.336 13.281,17.397c1.06,7.275 12.571,5.801 6.32,9.803c-5.282,3.382 -18.838,1.452 -20.966,-7.815c-0.735,-3.201 -1.421,-22.007 -13.083,-18.931c-2.499,0.659 -2.075,19.78 -2.036,21.508l4.087,2.724c3.668,1.343 4.006,1.138 3.988,1.911c-0.099,4.131 -5.504,2.335 -5.988,2.174c-1.202,-0.399 -1.662,-2.098 -2.865,-2.498Zm3.353,-51.504l-2.713,1.96c-0.255,13.095 -0.351,13.057 -0.153,14.273c0.736,4.529 8.273,3.476 9.615,3.582l3.732,-1.643l2.215,-1.876c-0.459,-6.092 6.494,-15.617 -12.696,-16.296Zm-105.71,6.809c-17.015,-5.709 1.701,-6.011 2.207,-5.962c1.607,-0.138 1.429,-0.402 2.949,-0.532c0.753,-0.064 0.698,-0.048 9.42,-0.652c57.205,-6.522 52.951,62.81 2.174,58.81c-8.39,0.503 -8.186,0.868 -16.353,2.079c-3.173,0.471 -5.035,-3.421 -1.768,-5.065c9.202,-4.628 4.578,-7.307 3.123,-17.619c-1.434,-10.162 1.045,-19.847 -1.753,-31.06Zm15.065,-0.042c0.838,23.958 2.053,23.758 2.275,47.596c27.921,-0.693 21.585,-12.415 19.932,-40.401c-0.573,-9.703 -11.823,-9.77 -13.133,-9.778c-7.975,-0.047 -7.387,1.663 -9.074,2.582Zm-187.299,45.552c0.456,-0.726 -0.835,-1.817 -0.379,-2.542c4.656,-7.416 6.426,5.751 8.327,11.776c4.785,15.165 0.442,21.117 9.226,22.008c15.286,1.55 -8.642,4.893 -9.492,5.011c-4.231,0.591 -1.16,-1.971 -0.526,-6.083c0.028,-0.183 -1.216,-1.052 -1.78,-4.178c-0.377,-2.09 -2.605,-14.434 -5.375,-25.991Zm430.034,-193.997c-0.277,0.227 -98.353,70.979 -102.239,68.922c-2.74,-1.45 -4.922,-126.622 -4.347,-127.699c0.649,-1.215 0.744,-1.126 62.203,-71.159c14.105,-16.073 14.478,-15.521 28.677,-31.414c3.919,-4.387 -4.925,-9.618 -33.844,9.889c-3.561,2.402 -44.436,28.438 -47.629,26.865c-4.207,-2.073 -2.655,-3.43 -1.652,-58.597c0.125,-6.872 3.159,-5.899 82.535,-37.024c8.784,-3.445 31.038,-9.816 25.913,-15.399c-6.813,-7.422 -70.717,27.177 -74.185,19.254c-3.56,-8.133 -7.653,-10.746 0.431,-14.011c1.397,-0.564 59.831,-20.929 59.843,-20.934c26.231,-11.158 104.307,-22.611 17.184,-88.011c-24.229,-18.188 -81.197,-38.813 -117.962,-67.723c-8.597,-6.76 -6.372,6.131 -66.983,39.503c-74.104,40.801 -146.321,62.844 -61.861,113.283c63.024,37.638 93.779,13.561 83.282,39.882c-0.91,2.282 -1.904,3.634 -30.55,-3.114c-59.631,-14.047 -85.211,-37.786 -102.376,-58.798c-8.645,-10.582 -6.757,-38.84 14.246,-54.548c43.574,-32.588 96.596,-45.458 149.863,-91.083c4.373,-3.746 7.715,-3.283 4.772,-8.432c-22.315,-2.184 -22.262,-2.12 -23.807,-2.413c-8.035,-1.522 -7.59,-17.597 -7.59,-84.264c-0,-107.489 -2.319,-110.019 12.965,-126.006c24.59,-25.721 23.936,-26.244 26.187,-28.358c3.731,-3.504 3.209,0.804 7.878,8.119c10.192,15.968 22.994,20.709 30.294,38.772c2.725,6.742 2.226,7.065 -0.117,190.955c-0.145,11.399 -14.088,3.094 -34.232,3.695c-0.302,0.265 -4.582,1.675 -0.728,4.901c48.246,40.389 180.005,75.742 171.229,141.721c-3.367,25.311 -42.761,38.45 -43.133,40.56c-2.647,14.998 23.266,-9.322 23.384,2.307c0.655,64.515 -4.586,64.232 -4.617,193.166c-0.004,14.959 2.909,17.732 -10.068,25.353c-2.281,1.34 -1.721,2.171 -27.878,17.786c3.863,7.289 5.916,3.738 14.044,3.222c12.949,-0.823 12.894,-0.03 162.183,-0.021c15.313,0.001 22.988,-4.255 21.418,10.891c-0.543,5.237 -3.221,4.167 -66.732,4.167c-130.202,-0 -133.073,0.681 -133.395,-4.186c-0.355,-5.362 -0.161,-5.29 -2.604,-10.02Zm-40.791,-193.713c-18.939,8.17 -19.296,6.725 -38.005,15.03c-0.486,0.216 -4.066,1.805 -4.197,5.145c-0.067,1.71 -0.823,20.951 1.99,21.301c7.469,0.931 25.859,-20.285 55.01,-27.648c1.511,-0.382 24.558,-9.675 26.69,10.995c1.311,12.707 -1.8,12.9 -85.235,108.866c-14.048,16.157 -4.935,19.052 -5.421,89.148c-0.006,0.934 -0.078,11.278 1.878,11.518c1.503,0.185 1.469,-0.323 51.648,-34.017c4.996,-3.355 52.532,-35.274 61.694,-43.032c2.191,-1.855 1.46,-56.392 5.713,-158.653c0.618,-14.859 5.36,-29.37 -9.87,-22.363c-19.508,8.976 -20.442,6.184 -40.038,15.385c-0.177,0.083 -11.437,3.488 -21.858,8.323Zm-42.32,-306.615c0.001,-8.777 0.013,-108.567 0.004,-109.707c-0.04,-5.267 3.376,-11.459 -20.014,-32.573c-5.455,-4.924 -27.015,13.007 -27.354,30.191c-0.256,12.981 -3.01,152.668 1.574,162.287c0.303,0.636 0.571,0.423 38.251,5.559c9.829,1.34 5.257,-5.294 7.539,-55.757Zm137.117,-70.143c5.488,-11.449 26.09,-31.988 38.983,-33.061c11.304,-0.941 11.865,2.322 22.068,-3.147c9.521,-5.103 33.006,-5.042 33.514,8.525c0.732,19.572 1.783,20.486 17.66,32.141c11.925,8.754 6.284,34.154 5.633,37.083c-2.144,9.652 -1.11,15.326 7.523,10.471c12.692,-7.138 14.856,3.282 40.269,-5.076c10.917,-3.591 29.498,7.029 27.638,15.896c-6.395,30.491 14.292,30.401 17.583,40.654c11.481,35.76 -18.299,64.982 9.334,59.03c26.363,-5.679 25.569,4.347 35.94,4.592c17.008,0.4 19.695,-4.845 30.767,8.124c11.044,12.935 -10.77,22.692 6.448,48.179c13.043,19.308 -6.693,43.791 -9.106,54.111c-2.36,10.097 -5.039,15.065 7.647,15.885c14.554,0.941 13.68,3.545 22.55,11.718c5.223,4.812 33.026,9.255 34.251,29.775c0.342,5.726 -18,13.538 -14.368,33.449c6.224,34.118 -9.571,32.89 -30.189,59.767c-3.068,3.999 7.522,8.955 16.728,13.204c18.878,8.713 12.745,16.286 30.434,27.395c7.539,4.735 22.826,25.894 5.392,34.135c-20.534,9.707 -10.773,33.169 -22.487,46.122c-14.48,16.012 -18.683,10.146 -35.438,24.111c-7.467,6.223 -16.978,6.131 -8.631,11.249c23.716,14.544 15.31,26.107 25.111,44.109c5.515,10.13 3.756,26.699 -9.107,27.46c-25.354,1.5 -17.929,26.442 -40.53,26.871c-16.782,0.319 -16.463,1.248 -33.364,2.808c-1.527,0.141 -23.462,2.166 -6.029,-18.2c12.626,-14.751 10.586,-17.13 2.085,-34.705c-1.921,-3.972 -4.61,-26.076 -4.888,-28.361c-0.015,-0.125 1.965,-21.92 6.353,-28.635c5.222,-7.991 10.996,-4.71 14.149,-5.785c11.859,-4.042 12.593,-5.354 23.929,1.44c8.631,5.173 5.132,-3.435 10.417,-19.215c8.454,-25.24 -30.429,-19.031 -46.683,-76.363c-4.943,-17.437 -8.876,-21.855 7.301,-29.84c1.71,-0.844 10.648,-13.569 19.588,-13.33c11.554,0.309 12.11,3.479 21.926,-2.267c-2.208,-15.532 3.572,-34.03 -16.862,-39.185c-18.341,-4.626 -72.034,-47.78 -50.604,-70.794c6.251,-6.713 2.372,-15.827 31.12,-24.066c10.432,-2.99 16.305,-1.55 12.448,-11.657c-7.06,-18.503 -9.068,-19.805 -29.03,-20.099c-14.366,-0.211 -82.036,-22.371 -68.659,-48.622c7.125,-13.983 0.571,-17.827 12.943,-27.541c15.718,-12.34 16.009,-11.478 16.455,-11.693c3.526,-1.701 1.815,-4.088 -6.865,-15.157c-15.87,-20.237 -20.978,-8.479 -51.61,-9.012c-32.254,-0.561 -60.66,-15.152 -57.8,-27.594c2.138,-9.303 0.005,-9.31 0.482,-18.988c0.98,-19.853 32.261,-30.986 21.134,-42.584c-18.396,-19.174 -23.69,0.416 -59.248,-0.885c-15.501,-0.568 -46.54,-7.929 -44.97,-20.889c2.319,-19.154 -5.434,-21.721 6.947,-35.666c3.005,-3.385 3.36,-5.325 3.716,-5.889Zm189.015,180.641c-4.475,10.239 2.466,14.894 -7.019,17.81c-14.517,4.463 -6.247,9.484 -3.181,15.156c2.567,4.748 -9.163,3.57 -6.396,11.629c3.172,9.24 21.004,4.431 24.009,4.153c14.308,-1.324 25.198,3.531 26.633,-18.509c0.746,-11.467 27.424,-5.036 40.189,-4.77c6.029,0.126 15.474,-20.04 13.536,-23.406c-5.441,-9.45 -18.424,-4.457 -25.515,-3.894c-17.397,1.381 -21.813,-15.732 -30.239,-3.203c-7.946,11.815 -11.068,9.156 -32.015,5.034Zm69.48,437.057c11.825,-2.481 13.782,-2.792 19.418,7.92c6.835,12.99 3.955,18.08 18.739,18.988c29.881,1.835 1.26,-19.837 1.919,-28.342c0.949,-12.249 0.57,-14.707 -11.444,-16.769c-8.546,-1.467 -4.272,-24.809 -19.279,-16.895c-7.216,3.806 -9.86,-9.777 -16.179,-1.822c-6.34,7.981 -12.942,-1.724 -15.791,6.475c-1.137,3.274 10.198,19.366 12.155,22.413c3.818,5.945 3.646,6.394 10.462,8.032Zm-255.55,-616.483c2.44,4.492 8.596,8.762 1.896,15.711c-7.429,7.706 -2.686,8.996 2.509,13.428c1.636,1.395 -7.815,15.904 3.096,15.183c0.764,-0.05 31.957,-9.552 34.316,-18.066c3.173,-11.449 -5.987,-18.332 11.184,-23.541c18.759,-5.69 24.876,-6.437 25.278,-12.537c0.092,-1.393 6.239,-29.852 -11.819,-20.187c-21.716,11.622 -22.803,7.338 -30.329,7.26c-12.432,-0.13 -3.888,12.277 -14.31,15.396c-11.102,3.323 -11.188,2.552 -21.822,7.354Zm281.973,335.16c25.641,8.937 27.518,18.926 39.378,7.082c10.801,-10.786 15.132,-16.71 0.742,-22.176c-8.702,-3.305 -15.91,0.763 -26.242,-12.483c-10.339,-13.256 -12.757,-0.713 -21.154,0.449c-12.543,1.736 -25.741,-21.179 -30.205,-0.398c-1.692,7.877 -15.59,2.595 -15.81,9.232c-0.258,7.765 0.945,9.514 -6.591,11.907c-3.132,0.995 -3.864,8.444 0.58,11.111c0.398,0.239 30.513,13.054 37.663,10.535c7.104,-2.503 11.174,-13.076 11.709,-14.465c1.85,-4.807 9.565,-0.885 9.93,-0.795Zm-192.914,-254.417c1.806,11.443 5.045,13.471 -4.483,20.214c-2.157,1.527 -2.484,6.214 -0.455,8.274c5.539,5.625 8.617,5.6 5.855,8.793c-0.282,0.326 -12.35,2.305 -3.365,10.054c1.455,1.255 3.332,2.874 23.791,-3.287c19.042,-5.734 21.725,-7.527 20.706,-27.26c-0.517,-10.012 40.356,-3.564 43.552,-21.402c0.911,-5.083 8.247,-26.939 -18.809,-15.659c-19.118,7.971 -19.64,-1.313 -29.078,-0.118c-8.861,1.122 -5.127,12.55 -14.272,15.882c-11.288,4.113 -11.927,0.764 -23.443,4.507Zm190.014,355.922c-5.253,1.198 -5.148,1.529 -7.771,6.213c-3.774,6.739 -18.856,-3 -19.801,7.692c-0.462,5.219 2.217,8.098 -3.065,7.768c-7.313,-0.458 -9.597,-0.758 -9.453,6.487c0.078,3.914 33.877,33.939 46.84,18.474c8.017,-9.565 10.353,-5.389 20.4,2.241c17.952,13.634 18.329,16.247 25.739,12.912c0.251,-0.113 24.385,-7.073 13.906,-19.069c-7.971,-9.123 -19.709,-4.656 -25.152,-21.982c-5.335,-16.98 -16.942,0.912 -30.12,-10.897c-0.903,-0.809 -0.962,-0.693 -11.523,-9.839Zm-939.567,228.424c1.062,0.036 1.489,-1.949 2.551,-1.913c1.019,0.034 0.758,0.512 12.151,3.825c2.649,0.77 27.758,12.829 20.812,-4.046c-8.892,-21.604 -7.005,-40.913 -16.255,-41.985c-6.727,-0.78 -33.309,-3.861 -60.898,-58.792c-2.729,-5.434 7.583,-8.864 36.902,12.594c0.244,0.179 22.095,17.975 21.144,6.886c-1.851,-21.581 -4.133,-21.232 -4.588,-42.896c-0.291,-13.855 -4.489,-12.294 -43.003,-64.128c-2.756,-3.709 -16.385,-14.036 0.404,-14.031c36.722,0.011 33.906,30.739 39.81,20.476c2.395,-4.164 -2.696,-8.77 6.386,-47.037c5.473,-23.063 -7.006,-21.158 -14.544,-31.684c-3.838,-5.359 -7.068,-4.882 -15.91,-49.482c-0.296,-1.491 -3.898,-19.661 3.274,-18.717c17.386,2.288 30.43,24.546 32.14,27.464c7.451,12.714 8.807,-13.801 14.437,-26.138c7.652,-16.768 0.657,-16.841 -9.443,-32.209c-2.729,-4.152 -19.755,-30.061 -14.166,-60.466c2.474,-13.456 30.849,11.375 39.076,36.002c3.302,9.883 5.772,-2.775 18.175,-26.744c6.002,-11.599 -23.702,-29.352 -18.218,-78.21c2.091,-18.631 27.747,9.077 35.148,33.872c2.357,7.897 5.149,0.617 18.465,-16.204c16.349,-20.652 14.894,-21.95 13.16,-29.571c-8.027,-35.273 -3.874,-35.474 -4.078,-71.562c-0.044,-7.805 -2.959,-13.287 4.39,-10.373c4.04,1.602 24.252,23.402 24.917,34.305c0.425,6.979 -3.213,11.356 3.627,10.062c0.066,-0.012 19.402,-20.477 21.086,-22.26c7.423,-7.856 -7.429,-56.898 17.758,-92.164c10.762,-15.068 25.073,26.795 25.153,32.742c0.011,0.851 0.137,10.185 2.482,10.342c2,0.134 1.112,-1.44 21.191,-13.377c14.539,-8.644 10.182,-12.083 16.182,-33.015c0.239,-0.835 0.385,-12.293 13.538,-35.123c19.382,-33.641 24.109,9.853 22.996,16.293c-0.135,0.781 -7,25.018 2.641,19.342c12.721,-7.491 17.033,-2.144 30.425,-22.009c0.249,-0.369 24.401,-45.306 47.145,-22.546c11.268,11.277 4.595,50.124 -49.107,50.455c-2.359,0.015 -2.376,0.098 -28.081,8.983c-10.841,3.747 48.325,21.544 25.519,24.566c-31.958,4.236 -60.815,4.922 -66.094,10.834c-20.055,22.461 -31.714,28.206 -24.007,32.431c28.494,15.622 89.186,18.5 49.648,23.371c-61.29,7.551 -72.254,7.794 -78.57,7.934c-8.297,0.184 -29.419,21.212 -28.012,23.677c1.42,2.488 67.541,6.358 55.562,13.62c-35.184,21.331 -60.222,23.433 -65.803,23.901c-33.155,2.783 -27.492,18.47 -46.812,35.192c-12.107,10.479 7.848,1.025 46.829,-1.821c4.859,-0.355 34.027,-12.491 14.499,3.53c-1.993,1.635 -14.552,19.037 -57.236,35.95c-9.075,3.596 -19.184,-0.813 -25.885,11.864c-7.76,14.681 -8.228,14.205 -16.203,28.831c-5.937,10.888 0.719,9.718 1.474,9.553c2.82,-0.617 2.96,0.776 35.602,-5.859c4.973,-1.011 7.862,1.742 31.019,-4.868c2.974,-0.849 10.679,0.224 2.785,5.813c-5.401,3.825 -34.144,24.176 -76.388,31.766c-9.678,1.739 -13.279,-1.461 -15.181,8.343c-4.247,21.892 -14.861,37.714 -4.315,39.216c34.487,4.912 34.459,1.277 50.204,-4.109c17.173,-5.874 -26.606,43.512 -52.309,44.819c-16.038,0.816 -9.95,11.597 -15.217,39.285c-1.092,5.742 -2.382,22.116 -2.533,24.044c-1.258,15.984 82.589,-30.833 56.182,-6.9c-11.687,10.592 -24.162,29.189 -59.878,49.944c-4.205,2.443 0.864,18.366 0.886,18.848c0.139,3.068 1.781,39.357 8.367,37.461c11.117,-3.2 47.959,-63.297 39.595,-32.709c-1.002,3.665 1.17,16.361 -11.502,40.296c-9.167,17.314 -24.099,17.96 -19.761,33.479c8.529,30.513 7.085,46.026 14.982,35.379c9.012,-12.151 18.639,-27.219 20.332,-21.202c8.647,30.721 4.466,51.091 -0.348,71.992c-3.189,13.843 -24.268,5.05 -26.23,4.232c-32.133,-13.404 -42.061,-35.494 -50.414,-47.174l-0.064,-2.489Zm348.551,-329.953c4.044,0.866 68.77,23.175 102.29,29.948c3.078,0.622 33.711,6.811 37.297,12.225c2.391,3.609 -0.703,63.667 -6.374,68.174c-5.598,4.448 -105.912,57.359 -106.094,57.989c-1.918,6.644 16.384,-0.006 39.548,4.109c9.27,1.647 70.398,-1.063 73,3.103c0.83,1.329 5.511,128.993 4.902,129.677c-4.908,5.505 -0.233,-7.52 -47.271,-46.25c-23.318,-19.199 -56.24,-30.316 -61.497,-32.091c-20.18,-6.814 -20.24,-5.801 -38.337,-8.844c-15.312,-2.574 -10.708,-8.304 -10.709,-23.956c-0.001,-23.896 0.451,-23.718 0.626,-47.7c1.043,-143.06 -3.061,-150.04 5.395,-148.273c0.585,0.122 0.535,0.14 7.225,1.888Zm83.468,40.63c-70.585,-19.969 -70.239,-21.027 -76.505,-22.184c-5.103,-0.941 -3.913,3.088 -4.004,116.015c-0.018,22.584 -5.138,30.791 4.281,26.929c6.726,-2.758 20.045,-10.679 21.742,-11.688c35.301,-20.993 36.31,-19.09 39.237,-21.126c9.412,-6.549 44.103,-23.868 50.437,-28.136c5.215,-3.514 6.002,-39.676 5.728,-42.367c-0.361,-3.54 -0.629,-6.172 -40.915,-17.444Zm11.224,197.345c15.205,10.874 15.206,10.656 29.144,22.957c7.081,6.249 4.584,-14.995 4.407,-19.106c-2.161,-50.097 -2.624,-51.752 -6.813,-52.088c-3.397,-0.272 -40.07,-3.209 -42.554,-1.904c-4.246,2.231 -6.135,36.583 -0.455,39.863c8.545,4.933 8.357,4.776 16.27,10.279Zm-87.58,-35.303c15.174,2.458 26.348,7.163 28.535,8.084c9.099,3.831 9.531,2.066 18.651,5.957c9.254,3.948 9.068,-28.969 2.821,-29.857c-1.422,-0.202 -50.397,-0.467 -52.467,0.134c-3.319,0.964 -3.212,8.7 -3.201,9.502c0.094,6.754 3.888,5.551 5.66,6.18Zm-45.407,30.598c53.543,0.013 64.182,-0.15 67.08,0.443c4.293,0.879 4.446,10.755 2.294,13.024c-1.716,1.809 -2.239,1.592 -176.696,1.59c-16.497,-0 -26.453,4.379 -22.093,-11.51c1.133,-4.128 3.106,-3.548 129.415,-3.548Zm388.743,43.471c119.483,0 123.858,-0.001 124.071,0.009c8.581,0.413 8.123,15.599 0.006,15.926c-9.722,0.392 -228.246,0.044 -248.094,0.013c-14.961,-0.024 -22.667,1.94 -18.954,-12.709c0.949,-3.744 2.823,-3.239 142.97,-3.239Zm-283.809,-0.004c0.988,0.013 15.59,-2.588 15.826,5.632c0.025,0.864 0.274,9.522 -3.727,10.136c-2.407,0.369 -264.752,0.161 -265.022,0.118c-6.725,-1.086 -3.859,-13.595 -3.46,-14.202c1.336,-2.03 2.131,-1.645 256.382,-1.684Zm-178.869,-121.562c-4.101,-0.647 -10.498,3.765 -10.865,-8.772c-0.251,-8.569 4.615,-6.886 65.721,-6.853c6.39,0.003 14.477,-2.737 13.148,11.48c-0.484,5.177 -3.561,4.116 -68.003,4.145Zm474.603,-0.009c-9.491,-0.01 -27.976,1.876 -28.322,-4.05c-0.735,-12.57 3.932,-11.551 16.397,-11.574c59.287,-0.109 61.909,-0.811 62.226,4.427c0.055,0.905 0.604,9.957 -2.886,10.954c-1.148,0.328 -21.603,0.242 -47.416,0.242Zm-417.363,-33.561c-44.505,-0.007 -52.357,1.147 -52.783,-3.776c-1.355,-15.633 5.982,-12.18 21.78,-12.174c29.891,0.013 41.096,-1.716 41.619,4.783c0.77,9.564 -1.084,10.659 -10.615,11.166Zm388.977,77.246c0.746,-5.836 -0.1,-6.429 1.959,-7.435c6.529,-3.189 6.972,-1.56 90.825,-0.814c7.593,0.068 8.941,0.726 9.101,8.246c0.184,8.63 -5.739,6.683 -54.42,6.683c-42.003,0 -46.356,2.301 -47.465,-6.68Zm-467.68,6.672c-10.967,-0.335 -15.035,-0.905 -12.151,-11.508c1.038,-3.816 2.76,-3.63 93.235,-3.553c1.084,0.001 10.792,0.009 8.384,10.653c-1.196,5.285 -3.664,4.437 -89.468,4.408Zm54.854,-133.672l-7.776,-0.643c-3.94,-1.526 -2.583,-11.812 -1.619,-12.959c1.615,-1.921 19.606,-1.92 21.319,-1.92c16.263,0 24.967,-4.491 22.503,11.566c-0.873,5.691 -18.724,3.951 -34.428,3.957Zm424.517,49.749c-11.364,-1.011 -15.048,-2.36 -11.303,-13.15c1.913,-5.512 60.787,-2.254 61.087,-2.029c3.056,2.296 2.721,12.907 0.593,14.103c-2.553,1.434 -11.27,1.075 -50.377,1.075Zm0,-49.754c-2.226,-0.088 -13.654,3.77 -11.616,-11.273c0.434,-3.203 1.215,-6.395 40.178,-4.213c6.451,0.361 5.214,11.451 4.181,13.375c-1.631,3.04 -16.305,2.111 -32.744,2.111Zm-372.064,587.31c-8.234,-9.741 -7.364,-11.897 -11.867,-11.356c-11.375,1.365 -9.541,4.931 -11.281,16.199c-7.972,51.622 -4.778,54.491 -0.606,53.524c7.649,-1.772 7.975,-7.314 8.029,-8.232c0.223,-3.799 -4.572,-11.876 22.886,-14.757c5.723,-0.6 9.954,9.751 14.271,9.378c17.509,-1.513 3.347,-11.329 1.162,-14.569c-1.687,-2.501 -5.403,-8.012 -22.595,-30.187Zm-7.039,27.354c-6.763,0.73 -6.701,-1.546 -6.426,-8.23c0.04,-0.962 0.706,-17.143 5.268,-10.821c7.724,10.704 14.163,16.29 1.158,19.052Zm-474.625,-652.811c-1.532,-0.335 -18.882,-4.127 -19.154,-4.182c-11.433,-2.302 -32.671,5.198 -37.315,12.586c-33.295,52.968 64.091,76.969 86.88,60.609c21.146,-15.18 13.972,-30.904 15.759,-34.71c3.697,-7.877 23.295,-7.61 6.88,-20.363c-6.043,-4.695 -10.326,4.842 -15.039,5.153c-8.594,0.567 -4.214,-10.431 -38.011,-19.094Zm-30.73,47.692c-9.565,-7.126 -9.913,-6.541 -11.393,-9.409c-0.626,-1.214 -2.562,-7.314 -2.415,-9.041c2.626,-30.693 62.03,-8.878 63.241,-2.288c1.271,6.914 -18.571,8.768 -3.835,17.833c2.621,1.612 8.193,-2.192 8.857,-2.234c10.933,-0.705 -6.211,31.874 -54.456,5.139Zm877.484,-560.204c-10.742,-7.136 -10.843,-6.619 -11.732,-7.274c-6.315,-4.648 37.105,-62.697 40.694,-73.266c1.758,-5.175 -7.547,-9.516 -10.044,-9.387c-4.645,0.239 -50.396,78.387 -52.244,80.927c-5.245,7.209 -3.272,10.418 21.329,23.479c13.114,6.962 16.257,15.252 24.098,2.788c5.396,-8.578 0.209,-8.744 -12.101,-17.267Zm-899.3,643.25c-31.872,1.296 -36.338,11.072 -41.379,41.394c-3.107,18.689 7.393,13.6 39.178,20.768c17.427,3.93 17.821,0.041 35.392,4.09c2.409,0.555 30.036,6.921 30.865,1.477c8.313,-54.556 -6.01,-53.51 -28.162,-62.253c-14.089,-5.561 -28.26,-4.762 -35.895,-5.476Zm4.747,47.221c-27.375,-2.663 -26.196,-8.297 -26.133,-10.416c1.002,-34.011 54.865,-15.748 59.499,-14.177c16.758,5.682 12.109,32.271 4.838,30.7c-19.102,-4.127 -19.059,-3.227 -38.204,-6.106Zm782.379,-813.939c11.432,-5.936 29.273,-16.63 31.784,-18.136c7.481,-4.484 1.616,-6.248 -5.826,-10.381c-14.987,-8.324 -66.669,45.694 -46.646,12.015c15.557,-26.168 13.527,-27.929 11.606,-29.595c-14.921,-12.941 -20.022,13.848 -28.792,29.414c-2.514,4.462 -24.992,44.358 -29.329,56.913c-1.936,5.604 9.712,9.68 11.67,8.552c10.164,-5.856 2.25,-17.92 23.741,-31.064c18.956,-11.593 4.609,11.747 6.348,44.017c0.216,4.011 10.28,11.907 16.039,9.812c2.175,-0.791 1.276,-1.627 2.858,-28.784c2.243,-38.517 1.165,-39.812 6.548,-42.764Zm-648.441,442.702c-40.482,-21.899 -43.496,-30.179 -49.309,-20.078c-5.168,8.981 0.132,9.56 27.34,25.777c47.656,28.405 60.623,30.487 73.85,16.234c30.423,-32.784 -15.493,-51.863 -67.164,-82.248c-9.626,-5.66 -11.546,2.275 -14.401,5.802c-8.121,10.031 80.071,36.417 70.988,58.112c-7.788,18.603 -32.55,1.441 -41.305,-3.599Zm1151.376,157.222c-11.555,3.87 -3.057,8.899 6.107,36.217c7.218,21.516 39.201,24.808 56.528,-1.701c6.25,-9.563 32.148,7.077 44.97,-24.062c1.971,-4.786 -10.695,-45.379 -16.798,-44.991c-3.892,0.247 -69.744,26.659 -81.193,30.28c-0.802,0.254 -0.447,1.033 -9.614,4.258Zm84.216,-6.448c1.369,3.373 12.059,20.113 -7.839,23.07c-10.676,1.586 -19.157,-22.325 -11.7,-25.058c6.084,-2.23 5.543,-3.081 11.897,-4.605c5.802,-1.392 4.858,1.239 7.642,6.593Zm-48.425,8.957c0.922,-0.062 1.791,-0.514 2.713,-0.575c7.47,-0.499 17.695,25.05 2.28,32.43c-15.933,7.628 -20.14,-12.669 -20.926,-14.632c-5.361,-13.39 2.629,-11.519 15.933,-17.223Zm-932.291,-403.257c-9.348,-2.62 -12.468,-6.053 -14.131,-6.824c-4.139,-1.919 -15.235,7.512 -9.634,12.423c37.827,33.165 62.203,-7.288 55.182,-23.906c-18.392,-43.532 -43.262,-26.34 -62.331,-22.86c-17.97,3.28 -12.368,-28.288 7.198,-20.278c4.456,1.825 6.083,7.068 15.584,-2.716c6.384,-6.574 -30.772,-37.977 -50.4,3.577c-4.34,9.189 6.133,30.495 15.766,34.897c16.599,7.586 18.138,4.89 30.995,1.319c32.992,-9.165 31.893,20.527 11.772,24.367Zm-262.245,324.913c20.516,9.096 21.5,8.088 22.831,6.725c10.83,-11.089 2.698,-13.415 -11.415,-19.887c-59.198,-27.15 -63.247,-25.581 -62.118,-31.883c0.19,-1.061 2.138,-2.359 5.218,-11.805c2.044,-6.27 -12.341,-21.041 -19.55,-2.573c-11.313,28.98 -28.139,46.62 -6.596,49.633c8.551,1.196 7.723,-20.243 18.688,-15.155c26.577,12.333 25.975,13.283 52.942,24.945Zm-100.073,397.749c9.24,2.988 20.422,9.826 21.486,3.394c4.095,-24.758 -21.595,-11.364 -22.404,-23.841c-0.357,-5.509 0.587,-24.784 5.386,-26.457c14.495,-5.056 20.777,1.03 23.74,-14.188c2.287,-11.747 -21.008,-0.789 -40.327,0.526c-5.83,0.397 -35.258,7.632 -38.305,8.381c-16.872,4.148 -33.111,-5.12 -32.113,19.475c0.195,4.808 66.098,25.277 82.537,32.711Zm-31.259,-40.512c4.947,-0.327 4.742,-0.58 9.524,-1.684c8.16,-1.884 2.506,15.287 1.627,16.162c-2.258,2.248 -2.567,0.672 -10.963,-2.145c-6.121,-2.054 -20.205,-3.19 -18.607,-8.507c0.339,-1.127 0.739,-0.724 18.419,-3.826Zm1378.506,45.193c39.58,-0.24 39.368,-3.405 42.795,-3.198c13.154,0.793 -15.778,9.393 -25.696,14.611c-21.499,11.312 -33.267,14.657 -35.858,16.423c-1.071,0.729 -11.174,17.932 6.893,17.217c85.729,-3.394 85.713,-2.13 93.16,-2.476c6.028,-0.28 6.591,-14.798 -0.133,-15.784c-10.092,-1.48 -50.545,2.413 -54.925,2.835c-0.631,0.061 -27.002,2.599 -6.851,-3.972c32.248,-10.515 31.189,-12.503 61.983,-26.566c3.931,-1.795 3.292,-12.237 1.537,-14.262c-2.628,-3.031 -89.253,0.163 -102.061,1.607c-3.977,0.448 -4.034,10.273 -2.204,12.097c3.463,3.451 4.192,1.38 21.36,1.468Zm-524.999,-885.495c-0.988,-0.512 -11.025,-5.717 -11.467,-7.883c-0.762,-3.736 4.046,-8.674 5.918,-12.407c4.464,-8.901 7.762,-4.037 32.38,9.511c8.946,4.923 8.943,-0.055 13.296,-9.235c2.335,-4.924 -9.003,-10.036 -20.561,-16.74c-17.776,-10.311 -22.911,-19.76 -33.396,-1.97c-3.602,6.111 -39.943,67.773 -44.365,76.777c-0.847,1.726 -2.364,4.814 18.291,15.588c27.38,14.282 29.361,18.033 32.666,12.219c9.631,-16.94 -3.415,-14.703 -27.085,-31.872c-2.973,-2.156 3.336,-9.362 9.136,-19.939c6.395,-11.661 28.654,18.208 37.535,9.217c12.095,-12.244 2.158,-14.076 -12.348,-23.266Zm-402.408,37.468c-0.859,-7.296 -1.009,-7.126 -3.009,-14.206c-2.686,-9.506 -6.342,-6.236 -13.177,-1.412c-4.395,3.102 1.861,28.215 4.662,39.416c2.145,8.575 -7.557,0.779 -8.06,0.374c-8.505,-6.834 -9.799,-4.704 -21.717,-14.108c-1.215,-0.958 -8.669,-6.841 -18.903,4.083c-4.172,4.453 31.269,22.689 44.916,32.043c30.752,21.076 26.303,53.58 45.18,36.618c5.472,-4.917 -21.769,-33.724 -22.941,-42.267c-3.815,-27.81 -5.982,-29.497 -6.951,-40.541Zm-486.855,883.905c1.628,0.009 19.204,0.101 20.275,1.777c0.708,1.108 3.508,24.882 -3.349,26.322c-5.192,1.09 -37.365,-2.714 -38.385,3.822c-2.485,15.921 5.355,13.104 21.459,13.104c82.595,0.001 84.899,0.755 85.503,-3.65c2.897,-21.112 -9.202,-12.974 -30.652,-12.987c-1.263,-0.001 -14.383,-0.009 -15.476,-3.123c-0.62,-1.767 -2.616,-24.836 3.373,-25.155c34.185,-1.822 44.203,6.435 43.391,-11.153c-0.215,-4.66 -4.493,-4.761 -5.049,-4.774c-8.092,-0.191 -97.549,-2.299 -101.166,1.302c-2.088,2.079 -4.011,14.202 3.438,14.503c0.942,0.038 0.918,0.001 16.638,0.014Zm1087.864,-826.656c-0.333,-4.469 3.015,-8.66 -15.462,-22.771c-14.259,-10.89 -16.711,-17.662 -24.279,-7.402c-40.45,54.84 -61.398,73.55 -57.333,79.563c5.357,7.925 8.157,8.837 14.175,1.492c13.806,-16.852 13.885,-16.517 14.939,-18.067c5.206,-7.655 7.362,-5.627 13.624,-0.497c22.602,18.517 53.117,-0.299 54.336,-32.317Zm-33.721,20.7c-27.183,-4.531 -7.302,-23.344 -1.937,-29.824c6.409,-7.742 34.67,23.068 1.937,29.824Zm245.344,329.12c-23.083,12.573 -30.402,10.753 -25.776,19.773c0.885,1.725 0.324,10.15 13.763,3.896c14.075,-6.549 13.755,-9.558 29.186,-6.895c5.868,1.013 10.005,0.189 6.761,5.315c-1.545,2.441 -27.443,29.489 -29.866,32.019c-4.492,4.691 4.003,24.541 9.905,17.177c3.305,-4.124 38.128,-47.576 43.912,-49.362c1.843,-0.569 1.804,0.921 23.98,2.496c1.444,0.103 20.884,5.557 21.906,2.979c1.277,-3.224 -2.4,-18.109 -12.408,-18.623c-20.35,-1.045 -19.936,-4.472 -40.443,-4.08c-19.037,0.364 3.603,-7.188 4.251,-7.404c0.816,-0.272 25.251,-12.174 26.625,-13.283c4.413,-3.562 -1.306,-16.002 -6.856,-13.602c-19.422,8.402 -53.541,25.485 -64.941,29.593Zm-90.248,-158.918c-37.818,26.317 -36.776,29.44 -34.789,32.702c2.698,4.428 19.055,24.131 21.296,25.66c31.532,21.525 97.507,-37.851 84.218,-62.847c-5.049,-9.496 -20.092,-31.295 -25.384,-30.644c-3.024,0.372 -2.666,1.154 -45.341,35.128Zm7.076,46.117c-10.63,-1.095 -24.126,-12.974 -14.787,-20.593c3.462,-2.824 4.087,-1.986 43.979,-34.425c9.218,-7.496 28.069,14.697 6.045,34.414c-22.071,19.758 -31.978,20.395 -35.237,20.604Zm138.213,306.027c-10.443,2.851 -5.02,6.949 -1.535,24.428c6.255,31.375 10.763,31.662 13.524,31.839c30.484,1.944 -11.819,-40.682 14.206,-46.517c11.346,-2.544 15.978,-6.474 17.791,5.161c0.213,1.368 1.782,0.795 4.651,16.664c2.245,12.412 25.394,14.027 18.202,-6.989c-7.688,-22.466 -6.801,-23.496 -4.954,-24.2c24.994,-9.531 22.163,2.909 22.713,4.924c7.806,28.628 11.134,27.913 13.454,27.199c17.295,-5.323 9.563,-11.549 6.431,-29.291c-1.511,-8.56 -3.138,-8.003 -4.49,-16.757c-3.215,-20.828 -27.075,-1.788 -99.993,13.539Zm-1118.329,-312.668c44.054,9.573 43.956,11.836 47.347,9.97c0.722,-0.398 12.576,-10.715 7.681,-14.049c-77.251,-52.625 -88.125,-71.705 -90.618,-49.807c-0.317,2.787 5.202,6.875 37.181,29.46c1.538,1.086 19.99,11.682 7.86,11.118c-3.881,-0.18 -8.347,-4.915 -30.987,-7.367c-8.48,-0.919 -30.729,-12.023 -37.127,-3.769c-8.639,11.144 0.681,11.468 36.218,38.363c39.44,29.849 48.298,35.83 51.139,22.867c2.451,-11.184 -86.777,-53.963 -28.694,-36.786Zm124.384,-162.198c-14.764,-9.277 -15.884,-9.796 -17.355,-10.478c-19.374,-8.981 -23.895,-23.091 -34.849,-4.777c-3.035,5.075 -0.207,5.572 33.064,66.109c16.517,30.053 17.55,33.072 21.72,29.994c14.889,-10.993 0.575,-19.121 -2.183,-27.633c-0.647,-1.995 -1.088,-3.356 16.695,-20.215c8.733,-8.279 18.308,20.779 34.07,0.855c4.084,-5.162 -26.061,-18.18 -51.16,-33.855Zm-26.996,5.727c0.081,-0.835 -1.233,-1.402 -1.152,-2.237c0.03,-0.306 0.27,-0.008 3.839,-0.109c25.26,14.469 24.703,16.76 24.121,19.155c-0.404,1.663 -6.697,8.746 -9.713,8.43c-5.57,-0.584 -4.047,-2.948 -17.094,-25.239Zm1121.22,800.068c2.584,0.193 23.5,1.753 28.324,15.715c5.807,16.805 -15.178,17.327 -14.797,26.164c0.541,12.533 7.098,10.478 8.09,10.167c44.453,-13.933 20.959,-50.108 18.335,-52.497c-39.791,-36.224 -124.747,-8.466 -98.62,39.344c9.127,16.702 14.721,15.965 49.142,15.023c6.487,-0.178 5.363,-13.89 4.968,-28.794c-0.219,-8.259 -4.016,-5.202 -12.154,-5.039c-8.052,0.161 -5.959,11.762 -6.01,12.373c-1.177,14.136 -28.841,-2.415 -20.37,-16.949c10.923,-18.743 30.284,-15.371 43.092,-15.507Zm-870.209,-1009.062c-13.406,5.56 -3.428,10.106 6.532,35.062c1.647,4.125 3.238,3.31 24.591,49.781c12.491,27.182 19.374,6.333 18.803,4.887c-12.521,-31.657 -43.238,-74.122 -14.065,-45.668c0.207,0.202 29.089,25.68 31.62,27.913c9.159,8.08 10.353,10.167 20.828,4.002c5.813,-3.421 1.539,-5.553 -24.665,-62.326c-15.741,-34.104 -17.844,-34.023 -21.033,-33.899c-5.546,0.216 -9.981,5.001 -6.498,11.954c19.401,38.736 18.832,39 25.003,48.155c6.812,10.106 -3.278,4.044 -3.534,3.723c-1.617,-2.027 -19.024,-18.347 -20.611,-19.57c-24.413,-18.812 -21.974,-25.947 -36.971,-24.014Zm834.39,763.753c-0.095,0.009 -42.584,8.369 -45.675,9.958c-3.012,1.548 -3.355,16.916 7.404,14.089c1.145,-0.301 74.211,-17.784 78.864,-13.559c6.579,5.975 -2.459,24.027 19.048,16.638c5.342,-1.835 2.29,-3.894 0.529,-21.479c-0.194,-1.936 -2.002,-1.56 -4.532,-23.898c-2.31,-20.399 -20.052,-12.238 -20.112,-7.052c-0.158,13.733 4.251,19.41 -9.333,20.531c-13.409,1.107 -12.971,2.661 -26.192,4.77Zm-247.721,-439.986c4.033,-4.538 7.991,-8.992 55.023,-52.254c1.054,-0.97 12.603,-6.034 1.836,-14.658c-3.556,-2.848 -5.899,-3.017 -42.833,33.23c-20.052,19.679 -2.569,-9.963 -0.703,-14.535c6.986,-17.116 20.434,-40.569 16.31,-46.704c-8.511,-12.663 -14.78,-1.31 -47.589,29.165c-15.532,14.427 -15.32,14.353 -30.705,29.007c-0.885,0.843 -10.427,9.931 0.535,15.263c6.753,3.285 41.042,-36.753 45.928,-39.912c10.419,-6.738 -2.882,14.99 -4.374,18.511c-16.349,38.571 -20.72,44.755 -16.492,48.778c11.051,10.515 13.245,2.294 23.065,-5.89Zm242.996,559.251c3.245,-0.389 76.879,-6.8 78.424,-8.789c0.891,-1.147 1.832,-13.606 -6.895,-13.711c-27.782,-0.335 -94.267,20.138 -83.123,-12.214c4.563,-13.248 34.066,-10.044 66.652,-15.868c13.718,-2.452 20.227,1.104 19.088,-12.913c-0.732,-9.005 -7.445,-0.732 -47.905,0.472c-2.691,0.08 -2.568,0.807 -33.323,4.722c-29.236,3.721 -24.67,34.256 -24.14,37.805c1.043,6.977 8.688,14.465 12.248,16.504c3.918,2.244 17.433,3.813 18.974,3.992Zm-906.296,-843.378c-9.886,6.099 -2.522,8.64 5.576,25.955c4.049,8.658 23.63,39.672 25.773,43.068c16.158,25.594 16.159,26.409 18.725,26.188c16.05,-1.381 6.529,-15.844 5.738,-17.045c-5.055,-7.678 -32.003,-54.437 -38.732,-64.068c-7.36,-10.535 -5.046,-16.678 -17.08,-14.098Zm-474.548,683.601c-6.829,-0.712 -6.801,-0.617 -7.375,-0.769c-7.373,-1.95 -16.015,-10.507 -16.425,6.464c-0.041,1.709 -0.198,8.187 18.962,9.849c11.17,0.969 10.582,3.194 21.523,4.326c22.366,2.313 21.922,4.373 23.855,4.572c24.867,2.563 43.782,14.986 41.303,-4.602c-0.846,-6.687 -18.226,-8.28 -19.952,-8.438c-30.587,-2.803 -51.459,-10.399 -61.892,-11.402Zm534.639,-643.217c16.279,31.6 19.512,38.447 27.75,34.983c9.887,-4.157 3.514,-7.784 -7.812,-31.933c-3.468,-7.395 -30.608,-54.812 -33.319,-59.549c-5.777,-10.094 -23.208,-3.141 -9.914,15.4c5.8,8.09 13.075,24.841 23.296,41.099Zm406.1,82.203c1.478,-1.869 8.707,-8.118 5.186,-12.024c-8.713,-9.666 -11.544,-4.726 -19.023,5.836c-2.973,4.199 3.301,19.096 13.837,6.189Z" style="fill:#3d6e36;"/><path d="M1463.162,1549.147c-1.131,0.417 -1.618,1.932 -2.748,2.348c-2.194,0.808 -74.859,-27.874 -81.32,-30.425c-6.404,-2.528 -67.917,-26.808 -80.659,-30.017c-34.955,-8.803 8.114,-9.51 9.63,-9.865c6.661,-1.561 6.623,-1.298 71.348,-10.452c2.491,-0.352 6.039,-1.475 -2.067,-31.376c-2.905,-10.715 4.025,-6.369 9.154,-4.742c5.57,1.766 41.766,13.244 68.614,25.037c32.302,14.188 53.327,16.148 50.48,20.276c-1.12,1.625 -73.935,7.36 -78.163,10.251c-4.553,3.113 -1.852,5.262 35.731,58.965Zm-43.267,-35.771c-18.796,-24.032 -15.881,-31.228 -28.666,-28.715c-3.201,0.629 -23.21,4.562 -40.454,5.177c-13.562,0.484 7.208,6.785 9.227,7.464c30.201,10.163 55.194,20.848 59.911,22.865c0.376,-1.496 1.366,-0.697 1.723,-2.115c0.097,-0.387 -0.129,-0.346 -1.741,-4.676Zm-16.469,-55.978c-4.651,-1.316 -6.94,-3.722 -7.057,1.181c-0.019,0.776 0.111,0.74 2.681,9.32c4.517,15.081 11.117,4.301 35.56,5.832c21.764,1.364 -24.709,-13.645 -31.184,-16.334Z" style="fill:#3e6e37;"/><path d="M709.161,1486.485c7.768,-0.232 20.949,-1.527 18.458,2.762c-2.325,4.003 -4.755,0.091 -25.771,11.937c-0.281,0.158 -121.771,53.709 -142.668,65.491c-13.604,7.67 2.699,-15.162 15.581,-37.137c12.993,-22.162 15.538,-26.925 7.955,-27.125c-35.961,-0.949 -35.625,-4.588 -71.428,-3.703c-1.798,0.044 -5.352,-3.398 2.647,-5.915c11.722,-3.689 102.655,-45.249 112.049,-50.305c3.858,-2.076 7.791,-0.082 7.022,4.141c-4.054,22.266 -12.852,31.787 9.468,34.854c3.028,0.416 3.074,-0.912 38.137,2.32c14.374,1.325 14.165,2.19 28.548,2.68Zm-78.626,9.2c-4.985,-0.793 -14.522,-5.64 -20.529,4.095c-0.995,1.613 -10.391,19.395 -16.307,27.543c-3.304,4.551 0.566,6.32 6.013,3.385c44.73,-24.098 88.701,-34.149 52.244,-32.745c-1.941,0.075 -19.71,-2.072 -21.421,-2.278Zm-35.853,-9.187c13.259,0.694 13.173,0.741 14.32,0.75c5.306,0.042 9.177,-23.941 -2.783,-17.705c-29.011,15.128 -30.861,11.037 -32.713,13.164c-5.058,5.811 12.548,4.14 21.176,3.791Z" style="fill:#3d6e37;"/><path d="M909.405,1491.216c-12.403,0.304 -30.681,4.59 -30.709,-6.446c-0.1,-38.484 -1.155,-48.052 4.479,-48.299c24.498,-1.077 36.661,-1.023 42.341,17.51c3.34,10.899 -1.357,23.93 -2.061,25.884c-3.128,8.679 -12.646,11.008 -14.05,11.351Zm-9.454,-45.219c-13,0.932 -7.746,6.831 -7.725,19.696c0.002,1.307 0.025,15.23 3.151,16.027c14.439,3.681 18.504,-7.218 19.092,-8.794c9.098,-24.394 -12.085,-26.668 -14.518,-26.93Z" style="fill:#3e6f38;"/><path d="M1048.602,1469.946c10.292,7.765 20.891,26.451 4.249,21.25c-3.061,-0.957 -18.383,-29.336 -26.331,-20.594c-0.666,0.733 1.271,22.285 -7.273,21.031c-4.974,-0.73 -4.115,-9.271 -4.009,-47.395c0.008,-3.045 -0.36,-7.73 6.308,-7.818c8.956,-0.119 41.882,-4.585 39.17,17.463c-0.544,4.425 -5.367,10.685 -8.192,11.715c-3.158,1.151 -3.824,0.938 -3.923,4.349Zm-12.708,-10.29c22.845,-0.499 11.562,-13.121 7.22,-13.527c-6.562,-0.613 -20.558,-2.395 -17.298,10.181c1.171,4.516 9.874,3.335 10.078,3.345Z" style="fill:#44733e;"/><path d="M838.166,1482.387c-0.079,1.011 -1.098,14.14 -9.263,8.652c-3.266,-2.195 -2.794,-3.033 -2.121,-49.142c0.031,-2.157 -0.576,-7.733 30.273,-5.045c16.272,1.418 18.307,33.732 -4.79,34.088c-1.098,0.017 -12.545,0.193 -13.53,2.279c-0.314,0.664 -0.042,0.679 -0.569,9.168Zm9.323,-36.393c-5.575,0.486 -7.703,-2.336 -9.044,3.148c-4.107,16.789 13,14.782 18.001,8.957c8.425,-9.814 -7.762,-11.947 -8.957,-12.105Z" style="fill:#40703a;"/><path d="M1157.77,1448.998c0.266,-9.219 -2.124,-14.143 7.016,-12.49c3.998,0.723 5.656,2.059 4.256,50.609c-0.16,5.542 -11.235,7.366 -15.468,-0.39c-6.489,-11.89 -7.456,-11.064 -13.425,-22.983c-13.934,-27.826 1.652,32.916 -13.429,27.643c-3.747,-1.31 -3.641,-2.591 -2.614,-49.546c0.12,-5.493 4.499,-5.563 7.229,-5.36c7.207,0.536 19.327,25.294 21.721,31.401c5.78,14.744 4.763,-17.327 4.714,-18.883Z" style="fill:#3e6f38;"/><path d="M995.891,1460.755c13.392,28.563 11.521,30.646 8.967,31.052c-13.425,2.133 -8.74,-13.138 -16.773,-13.329c-1.482,-0.035 -16.434,-0.391 -18.432,1.907c-0.454,0.522 -3.567,13.21 -12.396,11.284c-6.375,-1.391 0.051,-10.355 16.51,-52.27c1.678,-4.272 12.7,-3.906 14.281,0.141c5.619,14.382 7.283,19.495 7.842,21.216Zm-14.845,10.062c10.01,-0.507 5.49,-5.242 2.698,-14.827c-0.152,-0.521 -2.27,-7.792 -6.764,0.592c-4.908,9.156 -6.285,13.713 4.065,14.235Z" style="fill:#41713b;"/><path d="M1097.901,1457.5c1.091,0.022 12.429,0.25 13.165,3.589c1.286,5.833 -5.362,6.039 -6.046,6.06c-14.933,0.462 -22.602,-4.426 -21.406,10.465c0.674,8.389 27.029,1.321 29.139,6.872c2.685,7.065 -4.245,8.34 -36.279,7.185c-4.287,-0.155 -4.312,-6.253 -4.314,-6.904c-0.18,-43.746 -1.61,-48.291 6.646,-48.348c15.797,-0.109 32.224,-1.181 33.54,2.994c3.654,11.598 -26.68,2.942 -28.486,9.669c-2.82,10.502 3.379,7.784 14.041,8.417Z" style="fill:#3f6f39;"/><path d="M942.936,1482.046c11.452,8.3 -3.23,11.777 -5.083,7.653c-2.458,-5.47 -0.736,-6.225 5.083,-7.653Z" style="fill:#487641;"/><path d="M1419.895,1513.376c4.278,4.467 4.352,4.362 4.62,4.825c2.821,4.876 -4.229,2.113 -4.601,1.967c0.376,-1.496 1.366,-0.697 1.723,-2.115c0.097,-0.387 -0.129,-0.346 -1.741,-4.676Z" style="fill:#8ba684;"/></g></svg>